# xmcd
# 
# Track frame offsets:
#     150
#     22567
#     44875
#     67867
#     90330
#     97410
#     118550
#     141697
#     162895
# 
# Disc length: 2518
# 
# Revision: 1
# Processed by: cddbd v1.5.2PL0 Copyright (c) Steve Scherf et al.
# Submitted via: fre:ac v1.0.17
# 
DISCID=7609d409
DTITLE=Ozzie Ahlers - Fingerpainting (HOMCD_7097)
DYEAR=1997
DGENRE=Jazz
TTITLE0=Fingerpainting
TTITLE1=Bourbon Street
TTITLE2=Love's Embrace
TTITLE3=Night On The Town
TTITLE4=Prelude To Love
TTITLE5=Dance Til Dawn
TTITLE6=Victoria's Song
TTITLE7=City Strut
TTITLE8=Morningstar
EXTD=YEAR: 1997
EXTT0=
EXTT1=
EXTT2=
EXTT3=
EXTT4=
EXTT5=
EXTT6=
EXTT7=
EXTT8=
PLAYORDER=
